<svg width="497" height="120" viewBox="0 0 497 120" fill="none" xmlns="http://www.w3.org/2000/svg">
<path d="M60 110C87.6142 110 110 87.6142 110 60C110 32.3858 87.6142 10 60 10C32.3858 10 10 32.3858 10 60C10 87.6142 32.3858 110 60 110Z" fill="#60A5FA"/>
<path d="M81 30H39C36.7909 30 35 31.7909 35 34V91C35 93.2091 36.7909 95 39 95H81C83.2091 95 85 93.2091 85 91V34C85 31.7909 83.2091 30 81 30Z" fill="white"/>
<path d="M35 30C38.3333 28 41.6667 28 45 30C48.3333 32 51.6667 32 55 30C58.3333 28 61.6667 28 65 30C68.3333 32 71.6667 32 75 30C78.3333 28 81.6667 28 85 30V34H35V30Z" fill="white"/>
<path d="M43 42H60" stroke="#93C5FD" stroke-width="2" stroke-linecap="round"/>
<path d="M65 42H77" stroke="#3B82F6" stroke-width="2" stroke-linecap="round"/>
<path d="M43 50H55" stroke="#93C5FD" stroke-width="2" stroke-linecap="round"/>
<path d="M60 50H77" stroke="#3B82F6" stroke-width="2" stroke-linecap="round"/>
<path d="M43 58H63" stroke="#93C5FD" stroke-width="2" stroke-linecap="round"/>
<path d="M67 58H77" stroke="#3B82F6" stroke-width="2" stroke-linecap="round"/>
<path d="M43 66H57" stroke="#93C5FD" stroke-width="2" stroke-linecap="round"/>
<path d="M62 66H77" stroke="#3B82F6" stroke-width="2" stroke-linecap="round"/>
<path d="M43 74H77" stroke="#DBEAFE" stroke-linecap="round"/>
<path d="M51 80H47C45.8954 80 45 80.8954 45 82V88C45 89.1046 45.8954 90 47 90H51C52.1046 90 53 89.1046 53 88V82C53 80.8954 52.1046 80 51 80Z" fill="#60A5FA"/>
<path d="M62 78H58C56.8954 78 56 78.8954 56 80V88C56 89.1046 56.8954 90 58 90H62C63.1046 90 64 89.1046 64 88V80C64 78.8954 63.1046 78 62 78Z" fill="#3B82F6"/>
<path d="M73 82H69C67.8954 82 67 82.8954 67 84V88C67 89.1046 67.8954 90 69 90H73C74.1046 90 75 89.1046 75 88V84C75 82.8954 74.1046 82 73 82Z" fill="#93C5FD"/>
<path d="M78 55L90 43" stroke="white" stroke-width="3" stroke-linecap="round"/>
<path d="M92 41L93 38L94 41L97 42L94 43L93 46L92 43L89 42L92 41Z" fill="white"/>
<path opacity="0.7" d="M84 49L84.5 47.5L85 49L86.5 49.5L85 50L84.5 51.5L84 50L82.5 49.5L84 49Z" fill="white"/>
<path opacity="0.7" d="M96 48L96.5 46.5L97 48L98.5 48.5L97 49L96.5 50.5L96 49L94.5 48.5L96 48Z" fill="white"/>
<path opacity="0.4" d="M20 85L35 75L50 78L65 68L80 70L100 55" stroke="white" stroke-width="3" stroke-linecap="round" stroke-linejoin="round"/>
<path opacity="0.4" d="M100 55L95 58L97 63" stroke="white" stroke-width="3" stroke-linecap="round" stroke-linejoin="round"/>
<path d="M145.051 77.5H137.142L149.193 42.5909H158.705L170.739 77.5H162.83L154.085 50.5682H153.812L145.051 77.5ZM144.557 63.7784H163.239V69.5398H144.557V63.7784ZM185.766 78.0114C183.085 78.0114 180.778 77.4432 178.846 76.3068C176.925 75.1591 175.448 73.5682 174.414 71.5341C173.391 69.5 172.88 67.1591 172.88 64.5114C172.88 61.8295 173.397 59.4773 174.431 57.4545C175.477 55.4205 176.96 53.8352 178.88 52.6989C180.8 51.5511 183.085 50.9773 185.732 50.9773C188.016 50.9773 190.016 51.392 191.732 52.2216C193.448 53.0511 194.806 54.2159 195.806 55.7159C196.806 57.2159 197.357 58.9773 197.46 61H190.607C190.414 59.6932 189.903 58.642 189.073 57.8466C188.255 57.0398 187.181 56.6364 185.852 56.6364C184.727 56.6364 183.744 56.9432 182.903 57.5568C182.073 58.1591 181.425 59.0398 180.96 60.1989C180.494 61.358 180.261 62.7614 180.261 64.4091C180.261 66.0795 180.488 67.5 180.942 68.6705C181.408 69.8409 182.062 70.733 182.903 71.3466C183.744 71.9602 184.727 72.267 185.852 72.267C186.681 72.267 187.425 72.0966 188.085 71.7557C188.755 71.4148 189.306 70.9205 189.738 70.2727C190.181 69.6136 190.471 68.8239 190.607 67.9034H197.46C197.346 69.9034 196.8 71.6648 195.823 73.1875C194.857 74.6989 193.522 75.8807 191.817 76.733C190.113 77.5852 188.096 78.0114 185.766 78.0114ZM214.29 78.0114C211.608 78.0114 209.301 77.4432 207.369 76.3068C205.449 75.1591 203.972 73.5682 202.938 71.5341C201.915 69.5 201.403 67.1591 201.403 64.5114C201.403 61.8295 201.92 59.4773 202.955 57.4545C204 55.4205 205.483 53.8352 207.403 52.6989C209.324 51.5511 211.608 50.9773 214.256 50.9773C216.54 50.9773 218.54 51.392 220.256 52.2216C221.972 53.0511 223.33 54.2159 224.33 55.7159C225.33 57.2159 225.881 58.9773 225.983 61H219.131C218.938 59.6932 218.426 58.642 217.597 57.8466C216.778 57.0398 215.705 56.6364 214.375 56.6364C213.25 56.6364 212.267 56.9432 211.426 57.5568C210.597 58.1591 209.949 59.0398 209.483 60.1989C209.017 61.358 208.784 62.7614 208.784 64.4091C208.784 66.0795 209.011 67.5 209.466 68.6705C209.932 69.8409 210.585 70.733 211.426 71.3466C212.267 71.9602 213.25 72.267 214.375 72.267C215.205 72.267 215.949 72.0966 216.608 71.7557C217.278 71.4148 217.83 70.9205 218.261 70.2727C218.705 69.6136 218.994 68.8239 219.131 67.9034H225.983C225.869 69.9034 225.324 71.6648 224.347 73.1875C223.381 74.6989 222.045 75.8807 220.341 76.733C218.636 77.5852 216.619 78.0114 214.29 78.0114ZM242.813 78.0114C240.165 78.0114 237.876 77.4489 235.944 76.3239C234.023 75.1875 232.54 73.608 231.495 71.5852C230.45 69.5511 229.927 67.1932 229.927 64.5114C229.927 61.8068 230.45 59.4432 231.495 57.4205C232.54 55.3864 234.023 53.8068 235.944 52.6818C237.876 51.5455 240.165 50.9773 242.813 50.9773C245.461 50.9773 247.745 51.5455 249.665 52.6818C251.597 53.8068 253.086 55.3864 254.131 57.4205C255.177 59.4432 255.7 61.8068 255.7 64.5114C255.7 67.1932 255.177 69.5511 254.131 71.5852C253.086 73.608 251.597 75.1875 249.665 76.3239C247.745 77.4489 245.461 78.0114 242.813 78.0114ZM242.847 72.3864C244.052 72.3864 245.058 72.0455 245.864 71.3636C246.671 70.6705 247.279 69.7273 247.688 68.5341C248.109 67.3409 248.319 65.983 248.319 64.4602C248.319 62.9375 248.109 61.5795 247.688 60.3864C247.279 59.1932 246.671 58.25 245.864 57.5568C245.058 56.8636 244.052 56.517 242.847 56.517C241.631 56.517 240.609 56.8636 239.779 57.5568C238.961 58.25 238.342 59.1932 237.921 60.3864C237.512 61.5795 237.308 62.9375 237.308 64.4602C237.308 65.983 237.512 67.3409 237.921 68.5341C238.342 69.7273 238.961 70.6705 239.779 71.3636C240.609 72.0455 241.631 72.3864 242.847 72.3864ZM277.562 66.3523V51.3182H284.824V77.5H277.852V72.7443H277.58C276.989 74.2784 276.006 75.5114 274.631 76.4432C273.267 77.375 271.602 77.8409 269.636 77.8409C267.886 77.8409 266.347 77.4432 265.017 76.6477C263.688 75.8523 262.648 74.7216 261.898 73.2557C261.159 71.7898 260.784 70.0341 260.773 67.9886V51.3182H268.034V66.6932C268.045 68.2386 268.46 69.4602 269.278 70.358C270.097 71.2557 271.193 71.7045 272.568 71.7045C273.443 71.7045 274.261 71.5057 275.023 71.108C275.784 70.6989 276.398 70.0966 276.864 69.3011C277.341 68.5057 277.574 67.5227 277.562 66.3523ZM298.245 62.3636V77.5H290.984V51.3182H297.904V55.9375H298.211C298.79 54.4148 299.762 53.2102 301.126 52.3239C302.489 51.4261 304.143 50.9773 306.086 50.9773C307.904 50.9773 309.489 51.375 310.842 52.1705C312.194 52.9659 313.245 54.1023 313.995 55.5795C314.745 57.0455 315.12 58.7955 315.12 60.8295V77.5H307.859V62.125C307.87 60.5227 307.461 59.2727 306.631 58.375C305.802 57.4659 304.66 57.0114 303.205 57.0114C302.228 57.0114 301.364 57.2216 300.614 57.642C299.876 58.0625 299.296 58.6761 298.876 59.483C298.467 60.2784 298.256 61.2386 298.245 62.3636ZM335.121 51.3182V56.7727H319.354V51.3182H335.121ZM322.933 45.0455H330.195V69.4545C330.195 70.125 330.297 70.6477 330.501 71.0227C330.706 71.3864 330.99 71.642 331.354 71.7898C331.729 71.9375 332.161 72.0114 332.649 72.0114C332.99 72.0114 333.331 71.983 333.672 71.9261C334.013 71.858 334.274 71.8068 334.456 71.7727L335.598 77.1761C335.234 77.2898 334.723 77.4205 334.064 77.5682C333.405 77.7273 332.604 77.8239 331.661 77.858C329.911 77.9261 328.376 77.6932 327.058 77.1591C325.751 76.625 324.734 75.7955 324.007 74.6705C323.28 73.5455 322.922 72.125 322.933 70.4091V45.0455ZM347.668 77.9943C345.998 77.9943 344.509 77.7045 343.202 77.125C341.896 76.5341 340.862 75.6648 340.1 74.517C339.35 73.358 338.975 71.9148 338.975 70.1875C338.975 68.733 339.242 67.5114 339.776 66.5227C340.31 65.5341 341.038 64.7386 341.958 64.1364C342.879 63.5341 343.924 63.0795 345.094 62.7727C346.276 62.4659 347.515 62.25 348.81 62.125C350.333 61.9659 351.56 61.8182 352.492 61.6818C353.424 61.5341 354.1 61.3182 354.521 61.0341C354.941 60.75 355.151 60.3295 355.151 59.7727V59.6705C355.151 58.5909 354.81 57.7557 354.129 57.1648C353.458 56.5739 352.504 56.2784 351.265 56.2784C349.958 56.2784 348.918 56.5682 348.146 57.1477C347.373 57.7159 346.862 58.4318 346.612 59.2955L339.896 58.75C340.237 57.1591 340.907 55.7841 341.907 54.625C342.907 53.4545 344.197 52.5568 345.776 51.9318C347.367 51.2955 349.208 50.9773 351.299 50.9773C352.754 50.9773 354.146 51.1477 355.475 51.4886C356.816 51.8295 358.004 52.358 359.038 53.0739C360.083 53.7898 360.907 54.7102 361.509 55.8352C362.112 56.9489 362.413 58.2841 362.413 59.8409V77.5H355.526V73.8693H355.322C354.901 74.6875 354.339 75.4091 353.634 76.0341C352.93 76.6477 352.083 77.1307 351.094 77.483C350.106 77.8239 348.964 77.9943 347.668 77.9943ZM349.748 72.983C350.816 72.983 351.759 72.7727 352.577 72.3523C353.396 71.9205 354.038 71.3409 354.504 70.6136C354.969 69.8864 355.202 69.0625 355.202 68.142V65.3636C354.975 65.5114 354.663 65.6477 354.265 65.7727C353.879 65.8864 353.441 65.9943 352.952 66.0966C352.464 66.1875 351.975 66.2727 351.487 66.3523C350.998 66.4205 350.555 66.483 350.157 66.5398C349.305 66.6648 348.56 66.8636 347.924 67.1364C347.288 67.4091 346.793 67.7784 346.441 68.2443C346.089 68.6989 345.913 69.267 345.913 69.9489C345.913 70.9375 346.271 71.6932 346.987 72.2159C347.714 72.7273 348.634 72.983 349.748 72.983ZM368.534 77.5V42.5909H375.795V55.7159H376.017C376.335 55.0114 376.795 54.2955 377.398 53.5682C378.011 52.8295 378.807 52.2159 379.784 51.7273C380.773 51.2273 382 50.9773 383.466 50.9773C385.375 50.9773 387.136 51.4773 388.75 52.4773C390.364 53.4659 391.653 54.9602 392.619 56.9602C393.585 58.9489 394.068 61.4432 394.068 64.4432C394.068 67.3636 393.597 69.8295 392.653 71.8409C391.722 73.8409 390.449 75.358 388.835 76.392C387.233 77.4148 385.438 77.9261 383.449 77.9261C382.04 77.9261 380.841 77.6932 379.852 77.2273C378.875 76.7614 378.074 76.1761 377.449 75.4716C376.824 74.7557 376.347 74.0341 376.017 73.3068H375.693V77.5H368.534ZM375.642 64.4091C375.642 65.9659 375.858 67.3239 376.29 68.483C376.722 69.642 377.347 70.5455 378.165 71.1932C378.983 71.8295 379.977 72.1477 381.148 72.1477C382.33 72.1477 383.33 71.8239 384.148 71.1761C384.966 70.517 385.585 69.608 386.006 68.4489C386.438 67.2784 386.653 65.9318 386.653 64.4091C386.653 62.8977 386.443 61.5682 386.023 60.4205C385.602 59.2727 384.983 58.375 384.165 57.7273C383.347 57.0795 382.341 56.7557 381.148 56.7557C379.966 56.7557 378.966 57.0682 378.148 57.6932C377.341 58.3182 376.722 59.2045 376.29 60.3523C375.858 61.5 375.642 62.8523 375.642 64.4091ZM406.526 42.5909V77.5H399.265V42.5909H406.526ZM424.626 78.0114C421.933 78.0114 419.615 77.4659 417.672 76.375C415.74 75.2727 414.251 73.7159 413.206 71.7045C412.161 69.6818 411.638 67.2898 411.638 64.5284C411.638 61.8352 412.161 59.4716 413.206 57.4375C414.251 55.4034 415.723 53.8182 417.621 52.6818C419.53 51.5455 421.768 50.9773 424.337 50.9773C426.064 50.9773 427.672 51.2557 429.161 51.8125C430.661 52.358 431.967 53.1818 433.081 54.2841C434.206 55.3864 435.081 56.7727 435.706 58.4432C436.331 60.1023 436.643 62.0455 436.643 64.2727V66.267H414.536V61.767H429.808C429.808 60.7216 429.581 59.7955 429.126 58.9886C428.672 58.1818 428.041 57.5511 427.234 57.0966C426.439 56.6307 425.513 56.3977 424.456 56.3977C423.354 56.3977 422.376 56.6534 421.524 57.1648C420.683 57.6648 420.024 58.3409 419.547 59.1932C419.07 60.0341 418.825 60.9716 418.814 62.0057V66.2841C418.814 67.5795 419.053 68.6989 419.53 69.642C420.018 70.5852 420.706 71.3125 421.592 71.8239C422.479 72.3352 423.53 72.5909 424.746 72.5909C425.553 72.5909 426.291 72.4773 426.962 72.25C427.632 72.0227 428.206 71.6818 428.683 71.2273C429.161 70.7727 429.524 70.2159 429.774 69.5568L436.49 70C436.149 71.6136 435.45 73.0227 434.393 74.2273C433.348 75.4205 431.996 76.3523 430.337 77.0227C428.689 77.6818 426.786 78.0114 424.626 78.0114ZM459.348 77.5H451.439L463.49 42.5909H473.001L485.036 77.5H477.126L468.382 50.5682H468.109L459.348 77.5ZM458.854 63.7784H477.536V69.5398H458.854V63.7784ZM496.969 42.5909V77.5H489.589V42.5909H496.969Z" fill="#1D293D"/>
</svg>
